TITLE ""
FILE "1Q_t_0329-0338.mp3" MP3
  TRACK 01 AUDIO
    TITLE "1Q_t_0329-0338_01"
    INDEX 01 00:00:00
  TRACK 02 AUDIO
    TITLE "1Q_t_0329-0338_02"
    INDEX 01 00:00:10
  TRACK 03 AUDIO
    TITLE "1Q_t_0329-0338_03"
    INDEX 01 00:01:39
  TRACK 04 AUDIO
    TITLE "1Q_t_0329-0338_04"
    INDEX 01 00:01:53
  TRACK 05 AUDIO
    TITLE "1Q_t_0329-0338_05"
    INDEX 01 00:02:62
  TRACK 06 AUDIO
    TITLE "1Q_t_0329-0338_06"
    INDEX 01 00:03:03
  TRACK 07 AUDIO
    TITLE "1Q_t_0329-0338_07"
    INDEX 01 00:07:51
  TRACK 08 AUDIO
    TITLE "1Q_t_0329-0338_08"
    INDEX 01 00:08:27
  TRACK 09 AUDIO
    TITLE "1Q_t_0329-0338_09"
    INDEX 01 00:09:41
  TRACK 10 AUDIO
    TITLE "1Q_t_0329-0338_10"
    INDEX 01 00:09:56
  TRACK 11 AUDIO
    TITLE "1Q_t_0329-0338_11"
    INDEX 01 00:12:37
  TRACK 12 AUDIO
    TITLE "1Q_t_0329-0338_12"
    INDEX 01 00:12:51
  TRACK 13 AUDIO
    TITLE "1Q_t_0329-0338_13"
    INDEX 01 00:18:20
  TRACK 14 AUDIO
    TITLE "1Q_t_0329-0338_14"
    INDEX 01 00:18:71
  TRACK 15 AUDIO
    TITLE "1Q_t_0329-0338_15"
    INDEX 01 00:19:72
  TRACK 16 AUDIO
    TITLE "1Q_t_0329-0338_16"
    INDEX 01 00:20:15
  TRACK 17 AUDIO
    TITLE "1Q_t_0329-0338_17"
    INDEX 01 00:21:28
  TRACK 18 AUDIO
    TITLE "1Q_t_0329-0338_18"
    INDEX 01 00:21:44
  TRACK 19 AUDIO
    TITLE "1Q_t_0329-0338_19"
    INDEX 01 00:26:25
  TRACK 20 AUDIO
    TITLE "1Q_t_0329-0338_20"
    INDEX 01 00:27:01
  TRACK 21 AUDIO
    TITLE "1Q_t_0329-0338_21"
    INDEX 01 00:28:13
  TRACK 22 AUDIO
    TITLE "1Q_t_0329-0338_22"
    INDEX 01 00:28:30
  TRACK 23 AUDIO
    TITLE "1Q_t_0329-0338_23"
    INDEX 01 00:31:40
  TRACK 24 AUDIO
    TITLE "1Q_t_0329-0338_24"
    INDEX 01 00:31:54
  TRACK 25 AUDIO
    TITLE "1Q_t_0329-0338_25"
    INDEX 01 00:37:60
  TRACK 26 AUDIO
    TITLE "1Q_t_0329-0338_26"
    INDEX 01 00:38:38
  TRACK 27 AUDIO
    TITLE "1Q_t_0329-0338_27"
    INDEX 01 00:39:46
  TRACK 28 AUDIO
    TITLE "1Q_t_0329-0338_28"
    INDEX 01 00:39:63
  TRACK 29 AUDIO
    TITLE "1Q_t_0329-0338_29"
    INDEX 01 00:43:18
  TRACK 30 AUDIO
    TITLE "1Q_t_0329-0338_30"
    INDEX 01 00:43:34
  TRACK 31 AUDIO
    TITLE "1Q_t_0329-0338_31"
    INDEX 01 00:49:66
  TRACK 32 AUDIO
    TITLE "1Q_t_0329-0338_32"
    INDEX 01 00:50:42
  TRACK 33 AUDIO
    TITLE "1Q_t_0329-0338_33"
    INDEX 01 00:51:51
  TRACK 34 AUDIO
    TITLE "1Q_t_0329-0338_34"
    INDEX 01 00:51:66
  TRACK 35 AUDIO
    TITLE "1Q_t_0329-0338_35"
    INDEX 01 00:53:01
  TRACK 36 AUDIO
    TITLE "1Q_t_0329-0338_36"
    INDEX 01 00:53:14
  TRACK 37 AUDIO
    TITLE "1Q_t_0329-0338_37"
    INDEX 01 00:58:45
  TRACK 38 AUDIO
    TITLE "1Q_t_0329-0338_38"
    INDEX 01 00:59:23
  TRACK 39 AUDIO
    TITLE "1Q_t_0329-0338_39"
    INDEX 01 01:00:61
  TRACK 40 AUDIO
    TITLE "1Q_t_0329-0338_40"
    INDEX 01 01:01:04
  TRACK 41 AUDIO
    TITLE "1Q_t_0329-0338_41"
    INDEX 01 01:02:66
  TRACK 42 AUDIO
    TITLE "1Q_t_0329-0338_42"
    INDEX 01 01:03:05
  TRACK 43 AUDIO
    TITLE "1Q_t_0329-0338_43"
    INDEX 01 01:09:10
  TRACK 44 AUDIO
    TITLE "1Q_t_0329-0338_44"
    INDEX 01 01:09:62
  TRACK 45 AUDIO
    TITLE "1Q_t_0329-0338_45"
    INDEX 01 01:10:74
  TRACK 46 AUDIO
    TITLE "1Q_t_0329-0338_46"
    INDEX 01 01:11:14
  TRACK 47 AUDIO
    TITLE "1Q_t_0329-0338_47"
    INDEX 01 01:12:65
  TRACK 48 AUDIO
    TITLE "1Q_t_0329-0338_48"
    INDEX 01 01:13:05
  TRACK 49 AUDIO
    TITLE "1Q_t_0329-0338_49"
    INDEX 01 01:19:04
  TRACK 50 AUDIO
    TITLE "1Q_t_0329-0338_50"
    INDEX 01 01:19:61
  TRACK 51 AUDIO
    TITLE "1Q_t_0329-0338_51"
    INDEX 01 01:20:62
  TRACK 52 AUDIO
    TITLE "1Q_t_0329-0338_52"
    INDEX 01 01:21:05
  TRACK 53 AUDIO
    TITLE "1Q_t_0329-0338_53"
    INDEX 01 01:23:25
  TRACK 54 AUDIO
    TITLE "1Q_t_0329-0338_54"
    INDEX 01 01:23:39
  TRACK 55 AUDIO
    TITLE "1Q_t_0329-0338_55"
    INDEX 01 01:30:06
  TRACK 56 AUDIO
    TITLE "1Q_t_0329-0338_56"
    INDEX 01 01:30:61
  TRACK 57 AUDIO
    TITLE "1Q_t_0329-0338_57"
    INDEX 01 01:31:58
  TRACK 58 AUDIO
    TITLE "1Q_t_0329-0338_58"
    INDEX 01 01:32:03
  TRACK 59 AUDIO
    TITLE "1Q_t_0329-0338_59"
    INDEX 01 01:33:26
  TRACK 60 AUDIO
    TITLE "1Q_t_0329-0338_60"
    INDEX 01 01:33:43
  TRACK 61 AUDIO
    TITLE "1Q_t_0329-0338_61"
    INDEX 01 01:40:63
